<svg width="18" height="18" viewBox="0 0 18 18" fill="none" xmlns="http://www.w3.org/2000/svg">
											<path d="M9 0C4.05 0 0 4.05 0 9C0 13.95 4.05 18 9 18C13.95 18 18 13.95 18 9C18 4.05 13.95 0 9 0ZM9 16.125C5.1 16.125 1.875 12.9 1.875 9C1.875 5.1 5.1 1.875 9 1.875C12.9 1.875 16.125 5.1 16.125 9C16.125 12.9 12.9 16.125 9 16.125Z" fill="#FCFCFC"/>
											<path d="M13.3498 8.02505H9.9748V4.65005C9.9748 4.12505 9.52481 3.67505 8.9998 3.67505C8.4748 3.67505 8.02481 4.12505 8.02481 4.65005V8.02505H4.6498C4.1248 8.02505 3.6748 8.47505 3.6748 9.00005C3.6748 9.52505 4.1248 9.97505 4.6498 9.97505H8.02481V13.35C8.02481 13.8751 8.4748 14.3251 8.9998 14.3251C9.52481 14.3251 9.9748 13.8751 9.9748 13.35V9.97505H13.3498C13.8748 9.97505 14.3248 9.52505 14.3248 9.00005C14.3248 8.47505 13.8748 8.02505 13.3498 8.02505Z" fill="#FCFCFC"/>
										</svg>