<svg width="34" height="34" viewBox="0 0 34 34" fill="none" xmlns="http://www.w3.org/2000/svg">
											<path d="M33.9991 9.91632C33.9992 9.66181 33.9307 9.41199 33.8008 9.19311C33.6709 8.97424 33.4845 8.79439 33.2611 8.67249L17.6777 0.172485C17.4696 0.0589066 17.2363 -0.000610352 16.9991 -0.000610352C16.762 -0.000610352 16.5287 0.0589066 16.3206 0.172485L0.737221 8.67249C0.51372 8.79433 0.327179 8.97415 0.197213 9.19303C0.0672465 9.41191 -0.00134277 9.66176 -0.00134277 9.91632C-0.00134277 10.1709 0.0672465 10.4207 0.197213 10.6396C0.327179 10.8585 0.51372 11.0383 0.737221 11.1602L4.94897 13.458L0.737221 15.7558C0.51372 15.8777 0.327179 16.0575 0.197213 16.2764C0.0672465 16.4952 -0.00134277 16.7451 -0.00134277 16.9997C-0.00134277 17.2542 0.0672465 17.5041 0.197213 17.7229C0.327179 17.9418 0.51372 18.1216 0.737221 18.2435L4.94897 20.5413L0.737221 22.8392C0.51372 22.961 0.327179 23.1408 0.197213 23.3597C0.0672465 23.5786 -0.00134277 23.8284 -0.00134277 24.083C-0.00134277 24.3375 0.0672465 24.5874 0.197213 24.8063C0.327179 25.0252 0.51372 25.205 0.737221 25.3268L16.3206 33.8268C16.5308 33.9337 16.7633 33.9894 16.9991 33.9894C17.235 33.9894 17.4675 33.9337 17.6777 33.8268L33.2611 25.3268C33.4846 25.205 33.6711 25.0252 33.8011 24.8063C33.931 24.5874 33.9996 24.3375 33.9996 24.083C33.9996 23.8284 33.931 23.5786 33.8011 23.3597C33.6711 23.1408 33.4846 22.961 33.2611 22.8392L29.0493 20.5413L33.2611 18.2449C33.4846 18.1231 33.6711 17.9432 33.8011 17.7244C33.931 17.5055 33.9996 17.2556 33.9996 17.0011C33.9996 16.7465 33.931 16.4967 33.8011 16.2778C33.6711 16.0589 33.4846 15.8791 33.2611 15.7572L29.0493 13.458L33.2611 11.1616C33.4847 11.0395 33.6713 10.8595 33.8012 10.6403C33.931 10.4212 33.9994 10.1711 33.9991 9.91632ZM29.6245 24.083L16.9991 30.9694L4.37381 24.083L7.90697 22.1535L16.3206 26.7435C16.5294 26.8547 16.7625 26.9129 16.9991 26.9129C17.2358 26.9129 17.4688 26.8547 17.6777 26.7435L26.0913 22.1535L29.6245 24.083ZM29.6245 16.9997L16.9991 23.8861L4.37381 16.9997L7.90697 15.0702L16.3206 19.6602C16.5291 19.7725 16.7623 19.8313 16.9991 19.8313C17.236 19.8313 17.4692 19.7725 17.6777 19.6602L26.0913 15.0702L29.6245 16.9997ZM16.9991 16.8027L4.37381 9.91632L16.9991 3.0299L29.6245 9.91632L16.9991 16.8027Z" fill="#222fb9"/>
										</svg>