<svg width="19" height="18" viewBox="0 0 19 18" fill="none" xmlns="http://www.w3.org/2000/svg">
											<path d="M17.466 0.0554752L0.96597 6.80548C0.816794 6.8708 0.692728 6.98259 0.612274 7.12419C0.53182 7.26578 0.499288 7.42958 0.519529 7.59117C0.53977 7.75276 0.6117 7.90348 0.724592 8.02085C0.837484 8.13822 0.98529 8.21596 1.14597 8.24248L9.14097 9.35923L10.2577 17.3542C10.2807 17.5174 10.3567 17.6685 10.4741 17.7841C10.5915 17.8997 10.7437 17.9735 10.9072 17.994C10.9381 17.9978 10.9691 17.9998 11.0002 18C11.149 17.9999 11.2944 17.9556 11.418 17.8727C11.5415 17.7897 11.6376 17.6719 11.694 17.5342L18.444 1.03423C18.4967 0.897557 18.5087 0.748508 18.4784 0.60517C18.4481 0.461832 18.3769 0.330368 18.2733 0.226735C18.1698 0.123102 18.0384 0.0517551 17.8951 0.0213547C17.7517 -0.0090457 17.6027 0.00280736 17.466 0.0554752ZM11.3587 14.3925L10.5502 8.59048C10.5275 8.42922 10.453 8.27973 10.3379 8.16459C10.2227 8.04944 10.0732 7.9749 9.91197 7.95223L4.10772 7.14148L16.3792 2.12098L11.3587 14.3925Z" fill="#FCFCFC"></path>
										</svg>