<svg width="20" height="14" viewBox="0 0 20 14" fill="none" xmlns="http://www.w3.org/2000/svg">
											<path d="M19.561 1.172C19.4256 1.08045 19.2699 1.02347 19.1074 1.00604C18.945 0.988603 18.7807 1.01125 18.629 1.072L14.954 2.542C14.8449 1.83596 14.4875 1.19201 13.946 0.726018C13.4045 0.260026 12.7144 0.00258053 12 0H3C2.20435 0 1.44129 0.316071 0.87868 0.87868C0.316071 1.44129 0 2.20435 0 3V11C0 11.7956 0.316071 12.5587 0.87868 13.1213C1.44129 13.6839 2.20435 14 3 14H12C12.7143 13.9975 13.4042 13.7402 13.9457 13.2744C14.4872 12.8086 14.8447 12.1649 14.954 11.459L18.629 12.929C18.7807 12.9896 18.945 13.0121 19.1075 12.9946C19.27 12.977 19.4257 12.9199 19.561 12.8282C19.6962 12.7365 19.807 12.6131 19.8835 12.4687C19.9601 12.3244 20.0001 12.1634 20 12V2C20 1.83663 19.96 1.67573 19.8835 1.53139C19.807 1.38705 19.6962 1.26365 19.561 1.172ZM12 12H3C2.73478 12 2.48043 11.8946 2.29289 11.7071C2.10536 11.5196 2 11.2652 2 11V3C2 2.73478 2.10536 2.48043 2.29289 2.29289C2.48043 2.10536 2.73478 2 3 2H12C12.2652 2 12.5196 2.10536 12.7071 2.29289C12.8946 2.48043 13 2.73478 13 3V11C13 11.2652 12.8946 11.5196 12.7071 11.7071C12.5196 11.8946 12.2652 12 12 12ZM18 10.523L15 9.323V4.677L18 3.477V10.523Z" fill="#FCFCFC"/>
										</svg>